<svg width="86" height="119" viewBox="0 0 86 119" fill="none" xmlns="http://www.w3.org/2000/svg">
<path d="M15.6527 110.527C15.3644 110.527 15.2896 110.344 15.4282 109.978L19.5685 99.1119C19.696 98.7738 19.8789 98.6048 20.1173 98.6048H21.2812C21.5196 98.6048 21.7025 98.7738 21.8299 99.1119L25.9703 109.978C26.1089 110.344 26.034 110.527 25.7458 110.527H24.8978C24.604 110.527 24.4045 110.391 24.2992 110.12L23.26 107.368H18.1385L17.0993 110.12C16.994 110.391 16.7944 110.527 16.5007 110.527H15.6527ZM18.6623 106.004H22.7362L21.4641 102.679C21.3477 102.368 21.2313 102.025 21.1149 101.648C21.0041 101.271 20.8711 100.736 20.7159 100.043H20.6826C20.5274 100.736 20.3916 101.271 20.2752 101.648C20.1644 102.025 20.0508 102.368 19.9344 102.679L18.6623 106.004ZM27.6996 110.527C27.4502 110.527 27.3255 110.402 27.3255 110.153V102.171C27.3255 101.922 27.4502 101.797 27.6996 101.797H28.398C28.6474 101.797 28.7721 101.922 28.7721 102.171V102.837H28.8054C29.1656 102.438 29.5536 102.141 29.9693 101.947C30.385 101.753 30.9033 101.656 31.524 101.656C32.5328 101.656 33.2561 101.941 33.694 102.512C34.1374 103.078 34.3591 103.854 34.3591 104.84V110.153C34.3591 110.402 34.2344 110.527 33.985 110.527H33.27C33.0206 110.527 32.8959 110.402 32.8959 110.153V105.239C32.8959 104.153 32.7157 103.466 32.3554 103.177C31.9952 102.884 31.5379 102.737 30.9836 102.737C30.2631 102.737 29.7171 102.953 29.3458 103.385C28.9744 103.812 28.7887 104.547 28.7887 105.589V110.153C28.7887 110.402 28.664 110.527 28.4146 110.527H27.6996ZM36.3628 109.712C36.191 109.552 36.1549 109.402 36.2547 109.263L36.6288 108.74C36.7508 108.573 36.9309 108.582 37.1692 108.764C37.4963 109.014 37.8593 109.213 38.2584 109.363C38.663 109.513 39.123 109.588 39.6385 109.588C39.9433 109.588 40.2149 109.552 40.4533 109.479C40.6916 109.402 40.8994 109.261 41.0768 109.055C41.2597 108.85 41.3512 108.576 41.3512 108.232C41.3512 108.033 41.3068 107.844 41.2181 107.667C41.135 107.49 41.002 107.348 40.8191 107.243C40.6417 107.132 40.4671 107.046 40.2953 106.985C40.0126 106.88 39.7299 106.794 39.4473 106.728C39.1701 106.655 38.8043 106.547 38.3498 106.403C38.045 106.309 37.7568 106.176 37.4852 106.004C37.2136 105.827 36.9752 105.589 36.7702 105.289C36.5706 104.99 36.4709 104.577 36.4709 104.05C36.4709 103.513 36.6344 103.05 36.9614 102.662C37.2884 102.274 37.6986 102.011 38.1919 101.872C38.6852 101.728 39.1646 101.656 39.6302 101.656C40.3175 101.656 40.869 101.736 41.2847 101.897C41.7059 102.052 42.0689 102.238 42.3738 102.454C42.5512 102.582 42.5761 102.729 42.4486 102.895L42.0745 103.394C41.9581 103.554 41.778 103.549 41.5341 103.377C41.329 103.233 41.038 103.097 40.6611 102.97C40.2842 102.842 39.9544 102.778 39.6717 102.778C39.3226 102.778 39.0233 102.817 38.7738 102.895C38.5244 102.972 38.3221 103.105 38.1669 103.294C38.0117 103.482 37.9341 103.704 37.9341 103.959C37.9341 104.153 37.9646 104.328 38.0256 104.483C38.0865 104.632 38.2002 104.771 38.3664 104.898C38.5327 105.026 38.7655 105.128 39.0648 105.206C39.5304 105.328 39.9544 105.439 40.3369 105.539C40.7248 105.638 41.074 105.76 41.3844 105.904C41.789 106.093 42.0994 106.301 42.3156 106.528C42.5373 106.755 42.6897 107.002 42.7729 107.268C42.856 107.528 42.8976 107.819 42.8976 108.141C42.8976 108.734 42.7202 109.236 42.3655 109.646C42.0163 110.056 41.6255 110.33 41.1932 110.469C40.7609 110.602 40.2399 110.668 39.6302 110.668C38.8043 110.668 38.0949 110.552 37.5018 110.319C36.9143 110.081 36.5346 109.879 36.3628 109.712ZM43.8537 102.205C43.7816 101.933 43.8564 101.797 44.0782 101.797H44.9511C45.1507 101.797 45.2754 101.905 45.3252 102.122L46.5474 107.609C46.5862 107.77 46.6444 108.022 46.722 108.365C46.8051 108.709 46.8633 108.961 46.8966 109.122H46.9298C46.9576 108.967 47.0047 108.734 47.0712 108.424C47.1432 108.113 47.2098 107.842 47.2707 107.609L48.734 102.122C48.7894 101.905 48.9141 101.797 49.1081 101.797H49.8564C50.0504 101.797 50.1751 101.905 50.2305 102.122L51.6938 107.609C51.7547 107.842 51.8185 108.113 51.885 108.424C51.957 108.734 52.0069 108.967 52.0346 109.122H52.0679C52.1011 108.961 52.1566 108.709 52.2342 108.365C52.3173 108.022 52.3783 107.77 52.4171 107.609L53.6392 102.122C53.6891 101.905 53.8138 101.797 54.0134 101.797H54.8863C55.108 101.797 55.1829 101.933 55.1108 102.205L53.0489 110.02C52.9603 110.358 52.8106 110.527 52.6 110.527H51.6023C51.3917 110.527 51.242 110.358 51.1533 110.02L49.74 104.524C49.6402 104.136 49.5765 103.865 49.5487 103.71C49.5266 103.554 49.5072 103.408 49.4906 103.269H49.4739C49.4573 103.408 49.4351 103.554 49.4074 103.71C49.3852 103.865 49.3243 104.136 49.2245 104.524L47.8111 110.02C47.7224 110.358 47.5728 110.527 47.3622 110.527H46.3645C46.1539 110.527 46.0042 110.358 45.9155 110.02L43.8537 102.205ZM56.0835 106.162C56.0835 104.788 56.4272 103.693 57.1145 102.878C57.8018 102.063 58.7856 101.656 60.0659 101.656C61.1301 101.656 62.0114 102.03 62.7098 102.778C63.4137 103.521 63.7657 104.71 63.7657 106.345C63.7657 106.595 63.652 106.719 63.4248 106.719H57.6299C57.7242 107.789 58.0124 108.534 58.4946 108.956C58.9768 109.371 59.5228 109.579 60.1324 109.579C60.7754 109.579 61.2687 109.471 61.6123 109.255C61.956 109.039 62.2082 108.825 62.3689 108.615C62.5463 108.382 62.7181 108.338 62.8844 108.482L63.3749 108.906C63.5024 109.017 63.5024 109.169 63.3749 109.363C63.2696 109.524 62.9675 109.782 62.4687 110.136C61.9754 110.491 61.1966 110.668 60.1324 110.668C58.7468 110.668 57.7242 110.261 57.0646 109.446C56.4106 108.631 56.0835 107.537 56.0835 106.162ZM57.5967 105.638H62.2941C62.2719 104.862 62.0724 104.183 61.6955 103.601C61.3186 103.014 60.7643 102.72 60.0327 102.72C59.3897 102.72 58.8438 102.936 58.3948 103.369C57.9459 103.795 57.6798 104.552 57.5967 105.638ZM66.0603 110.527C65.8109 110.527 65.6862 110.402 65.6862 110.153V102.171C65.6862 101.922 65.8109 101.797 66.0603 101.797H66.7587C67.0081 101.797 67.1328 101.922 67.1328 102.171V103.169H67.1661C67.4321 102.67 67.7453 102.293 68.1055 102.038C68.4658 101.784 68.9148 101.656 69.4524 101.656C69.8071 101.656 70.0566 101.687 70.2007 101.747C70.3282 101.797 70.3753 101.881 70.342 101.997L70.1508 102.679C70.1231 102.778 70.051 102.817 69.9346 102.795C69.7406 102.756 69.5577 102.737 69.3859 102.737C68.7374 102.737 68.2025 103.031 67.7813 103.618C67.3601 104.2 67.1494 104.995 67.1494 106.004V110.153C67.1494 110.402 67.0247 110.527 66.7753 110.527H66.0603Z" fill="#404040"/>
<circle cx="42.9328" cy="43.2974" r="41.2905" stroke="#404040" stroke-opacity="0.5" stroke-width="2.55405"/>
<path d="M19.0949 40.7432L35.0072 54.7905L70.1761 27.5472" stroke="#404040" stroke-width="11.9189"/>
</svg>
