<svg width="48" height="48" viewBox="0 0 48 48" fill="none" xmlns="http://www.w3.org/2000/svg">
<path d="M42 3H24C23.2046 3.00079 22.442 3.31712 21.8796 3.87956C21.3171 4.44199 21.0008 5.20459 21 6V21H6C5.20459 21.0008 4.44199 21.3171 3.87956 21.8796C3.31712 22.442 3.00079 23.2046 3 24V45H45V6C44.9992 5.20459 44.6829 4.44199 44.1204 3.87956C43.558 3.31712 42.7954 3.00079 42 3ZM13.5 42V31.5H19.5V42H13.5ZM42 42H22.5V30C22.5 29.6022 22.342 29.2206 22.0607 28.9393C21.7794 28.658 21.3978 28.5 21 28.5H12C11.6022 28.5 11.2206 28.658 10.9393 28.9393C10.658 29.2206 10.5 29.6022 10.5 30V42H6V24H24V6H42V42Z" fill="#1E1E1E"/>
<path d="M27 12H30V15H27V12Z" fill="#1E1E1E"/>
<path d="M36 12H39V15H36V12Z" fill="#1E1E1E"/>
<path d="M27 21H30V24H27V21Z" fill="#1E1E1E"/>
<path d="M36 21H39V24H36V21Z" fill="#1E1E1E"/>
<path d="M27 30H30V33H27V30Z" fill="#1E1E1E"/>
<path d="M36 30H39V33H36V30Z" fill="#1E1E1E"/>
</svg>
