<svg width="15" height="17" viewBox="0 0 15 17" fill="none" xmlns="http://www.w3.org/2000/svg">
<path d="M11.3156 2.12042V0.893715C11.3156 0.571313 11.0483 0.303955 10.7259 0.303955C10.4035 0.303955 10.1361 0.571313 10.1361 0.893715V2.07324H5.0249V0.893715C5.0249 0.571313 4.75754 0.303955 4.43513 0.303955C4.11273 0.303955 3.84537 0.571313 3.84537 0.893715V2.12042C1.72224 2.317 0.692122 3.58302 0.534853 5.46239C0.519126 5.69043 0.707849 5.87916 0.928027 5.87916H14.233C14.461 5.87916 14.6498 5.68257 14.6262 5.46239C14.4689 3.58302 13.4388 2.317 11.3156 2.12042Z" fill="#222222"/>
<path d="M13.8716 7.05841H1.29001C0.857518 7.05841 0.503662 7.41224 0.503662 7.84473V12.6886C0.503662 15.0477 1.68318 16.6204 4.4354 16.6204H10.7262C13.4784 16.6204 14.6579 15.0477 14.6579 12.6886V7.84473C14.6579 7.41224 14.3041 7.05841 13.8716 7.05841ZM5.38688 13.6401C5.34756 13.6716 5.30824 13.7109 5.26893 13.7345C5.22175 13.7659 5.17456 13.7895 5.12738 13.8052C5.0802 13.8288 5.03302 13.8446 4.98584 13.8524C4.9308 13.8603 4.88362 13.8681 4.82857 13.8681C4.72635 13.8681 4.62412 13.8446 4.52976 13.8052C4.42753 13.7659 4.3489 13.7109 4.27027 13.6401C4.12872 13.4907 4.04222 13.2862 4.04222 13.0818C4.04222 12.8773 4.12872 12.6729 4.27027 12.5235C4.3489 12.4527 4.42753 12.3977 4.52976 12.3584C4.6713 12.2955 4.82857 12.2797 4.98584 12.3112C5.03302 12.319 5.0802 12.3348 5.12738 12.3584C5.17456 12.3741 5.22175 12.3977 5.26893 12.4291C5.30824 12.4606 5.34756 12.492 5.38688 12.5235C5.52842 12.6729 5.61492 12.8773 5.61492 13.0818C5.61492 13.2862 5.52842 13.4907 5.38688 13.6401ZM5.38688 10.8879C5.23747 11.0294 5.03302 11.1159 4.82857 11.1159C4.62412 11.1159 4.41967 11.0294 4.27027 10.8879C4.12872 10.7385 4.04222 10.534 4.04222 10.3296C4.04222 10.1251 4.12872 9.92068 4.27027 9.77128C4.49044 9.5511 4.83644 9.48033 5.12738 9.60614C5.22961 9.64546 5.31611 9.70051 5.38688 9.77128C5.52842 9.92068 5.61492 10.1251 5.61492 10.3296C5.61492 10.534 5.52842 10.7385 5.38688 10.8879ZM8.13909 13.6401C7.98969 13.7816 7.78524 13.8681 7.58079 13.8681C7.37634 13.8681 7.17189 13.7816 7.02248 13.6401C6.88094 13.4907 6.79444 13.2862 6.79444 13.0818C6.79444 12.8773 6.88094 12.6729 7.02248 12.5235C7.31343 12.2325 7.84815 12.2325 8.13909 12.5235C8.28064 12.6729 8.36713 12.8773 8.36713 13.0818C8.36713 13.2862 8.28064 13.4907 8.13909 13.6401ZM8.13909 10.8879C8.09978 10.9193 8.06046 10.9508 8.02114 10.9823C7.97396 11.0137 7.92678 11.0373 7.8796 11.053C7.83242 11.0766 7.78524 11.0923 7.73806 11.1002C7.68301 11.1081 7.63583 11.1159 7.58079 11.1159C7.37634 11.1159 7.17189 11.0294 7.02248 10.8879C6.88094 10.7385 6.79444 10.534 6.79444 10.3296C6.79444 10.1251 6.88094 9.92068 7.02248 9.77128C7.09325 9.70051 7.17975 9.64546 7.28197 9.60614C7.57292 9.48033 7.91892 9.5511 8.13909 9.77128C8.28064 9.92068 8.36713 10.1251 8.36713 10.3296C8.36713 10.534 8.28064 10.7385 8.13909 10.8879ZM10.8913 13.6401C10.7419 13.7816 10.5375 13.8681 10.333 13.8681C10.1286 13.8681 9.9241 13.7816 9.7747 13.6401C9.63315 13.4907 9.54665 13.2862 9.54665 13.0818C9.54665 12.8773 9.63315 12.6729 9.7747 12.5235C10.0656 12.2325 10.6004 12.2325 10.8913 12.5235C11.0329 12.6729 11.1193 12.8773 11.1193 13.0818C11.1193 13.2862 11.0329 13.4907 10.8913 13.6401ZM10.8913 10.8879C10.852 10.9193 10.8127 10.9508 10.7734 10.9823C10.7262 11.0137 10.679 11.0373 10.6318 11.053C10.5846 11.0766 10.5375 11.0923 10.4903 11.1002C10.4352 11.1081 10.3802 11.1159 10.333 11.1159C10.1286 11.1159 9.9241 11.0294 9.7747 10.8879C9.63315 10.7385 9.54665 10.534 9.54665 10.3296C9.54665 10.1251 9.63315 9.92068 9.7747 9.77128C9.85333 9.70051 9.93196 9.64546 10.0342 9.60614C10.1757 9.54324 10.333 9.52751 10.4903 9.55896C10.5375 9.56683 10.5846 9.58255 10.6318 9.60614C10.679 9.62187 10.7262 9.64546 10.7734 9.67692L10.8913 9.77128C11.0329 9.92068 11.1193 10.1251 11.1193 10.3296C11.1193 10.534 11.0329 10.7385 10.8913 10.8879Z" fill="#222222"/>
</svg>
