<svg width="35" height="34" viewBox="0 0 35 34" fill="none" xmlns="http://www.w3.org/2000/svg">
<path d="M34.2906 17.1138C34.2906 7.6773 26.6391 0.0322266 17.209 0.0322266C7.77251 0.0322266 0.127441 7.6773 0.127441 17.1138C0.127441 25.6375 6.37182 32.705 14.54 33.9851V22.0525H10.2024V17.1149H14.54V13.3494C14.54 9.06944 17.0862 6.70578 20.9894 6.70578C22.8587 6.70578 24.8156 7.03887 24.8156 7.03887V11.242H22.658C20.5399 11.242 19.878 12.5605 19.878 13.911V17.1138H24.6149L23.8537 22.0514H19.878V33.984C28.0398 32.7039 34.2906 25.6364 34.2906 17.1127V17.1138Z" fill="white"/>
</svg>
