<svg width="72" height="70" viewBox="0 0 72 70" fill="none" xmlns="http://www.w3.org/2000/svg">
<path d="M23.8326 31.9576C22.3671 31.9624 20.9275 32.3321 19.6524 33.0311C21.4476 28.535 24.425 24.5704 28.2901 21.5297C28.5112 21.3535 28.6943 21.1368 28.8289 20.8922C28.9635 20.6475 29.047 20.3795 29.0746 20.1036C29.1022 19.8277 29.0734 19.5493 28.9898 19.2842C28.9061 19.019 28.7694 18.7725 28.5872 18.5585C28.4051 18.3445 28.1812 18.1673 27.9284 18.0371C27.6755 17.9068 27.3986 17.8261 27.1134 17.7994C26.8283 17.7727 26.5405 17.8006 26.2665 17.8815C25.9925 17.9624 25.7377 18.0947 25.5165 18.271C17.5921 24.5009 14.0657 33.1269 14.0657 38.475C14.0793 40.366 14.6617 42.2123 15.7418 43.7883C16.8218 45.3644 18.3528 46.6021 20.1477 47.3503C21.3093 47.8948 22.5815 48.1828 23.8722 48.1937C25.0083 48.2471 26.1438 48.0768 27.2098 47.6929C28.2758 47.309 29.2501 46.7197 30.0737 45.9606C30.8972 45.2015 31.5529 44.2885 32.0009 43.2769C32.4489 42.2653 32.6799 41.1762 32.6799 40.0756C32.6799 38.9751 32.4489 37.886 32.0009 36.8744C31.5529 35.8628 30.8972 34.9498 30.0737 34.1907C29.2501 33.4316 28.2758 32.8422 27.2098 32.4584C26.1438 32.0745 25.0083 31.9042 23.8722 31.9576H23.8326Z" fill="#71D7CB"/>
<path d="M45.9024 31.9575C44.4367 31.9605 42.9966 32.3303 41.7222 33.0309C43.5167 28.5396 46.4863 24.5763 50.3401 21.5296C50.5813 21.3613 50.7844 21.1471 50.9368 20.9001C51.0893 20.6531 51.1879 20.3785 51.2265 20.0932C51.2652 19.808 51.2431 19.5181 51.1617 19.2414C51.0802 18.9647 50.9411 18.7071 50.7529 18.4843C50.5647 18.2616 50.3313 18.0785 50.0672 17.9463C49.8032 17.8141 49.5139 17.7355 49.2173 17.7155C48.9207 17.6956 48.6229 17.7345 48.3425 17.83C48.062 17.9255 47.8047 18.0755 47.5863 18.2708C39.6619 24.5008 36.1355 33.1268 36.1355 38.4749C36.1449 40.3445 36.7103 42.172 37.7642 43.739C38.8181 45.306 40.316 46.5463 42.0788 47.3118C43.2699 47.8722 44.578 48.1608 45.9024 48.1552C47.0385 48.2087 48.174 48.0383 49.24 47.6544C50.306 47.2706 51.2803 46.6813 52.1039 45.9222C52.9275 45.1631 53.5831 44.25 54.0311 43.2385C54.4791 42.2269 54.7101 41.1378 54.7101 40.0372C54.7101 38.9366 54.4791 37.8475 54.0311 36.8359C53.5831 35.8243 52.9275 34.9113 52.1039 34.1522C51.2803 33.3931 50.306 32.8038 49.24 32.4199C48.174 32.0361 47.0385 31.8657 45.9024 31.9191V31.9575Z" fill="#71D7CB"/>
</svg>
