<svg width="48" height="43" viewBox="0 0 48 43" fill="none" xmlns="http://www.w3.org/2000/svg">
<path d="M45.9161 21.6151L41.132 16.7732L41.7986 10.3693L34.7206 8.94627L31.0149 3.39282L24.3485 5.92658L17.6822 3.39282L13.9765 8.92891L6.89844 10.3346L7.56508 16.7558L2.78101 21.6151L7.56508 26.457L6.89844 32.8781L13.9765 34.3012L17.6822 39.8373L24.3485 37.2862L31.0149 39.8199L34.7206 34.2838L41.7986 32.8608L41.132 26.457L45.9161 21.6151ZM19.2115 28.5742L14.5451 24.4091C13.7804 23.7323 13.7804 22.639 14.5451 21.9621L14.6824 21.8407C15.447 21.1638 16.7019 21.1638 17.4665 21.8407L20.6232 24.6521L30.7208 15.6972C31.4854 15.0203 32.7403 15.0203 33.5049 15.6972L33.6422 15.8187C34.4068 16.4955 34.4068 17.5888 33.6422 18.2656L22.0349 28.5742C21.231 29.251 19.9958 29.251 19.2115 28.5742Z" fill="#71D7CB"/>
</svg>
