<svg width="35" height="35" viewBox="0 0 35 35" fill="none" xmlns="http://www.w3.org/2000/svg">
<path d="M34.3627 10.2804C34.3418 8.84427 34.0762 7.41954 33.5678 6.07639C32.678 3.78279 30.8663 1.96915 28.5727 1.0813C27.2466 0.582363 25.8447 0.314871 24.4256 0.284517C22.6006 0.202941 22.022 0.180176 17.3892 0.180176C12.7565 0.180176 12.1627 0.180176 10.351 0.284517C8.93383 0.314871 7.53186 0.582363 6.20579 1.0813C3.91218 1.96915 2.09854 3.78279 1.2107 6.07639C0.711757 7.40247 0.442368 8.80443 0.415808 10.2216C0.334233 12.0485 0.30957 12.6271 0.30957 17.2598C0.30957 21.8926 0.30957 22.4845 0.415808 24.2981C0.444265 25.7172 0.711757 27.1172 1.2107 28.4471C2.10044 30.7388 3.91218 32.5524 6.20768 33.4403C7.52807 33.9563 8.93003 34.2485 10.3529 34.294C12.1798 34.3756 12.7584 34.4002 17.3911 34.4002C22.0239 34.4002 22.6177 34.4002 24.4294 34.294C25.8466 34.2655 27.2485 33.998 28.5765 33.4991C30.8701 32.6094 32.6818 30.7957 33.5716 28.504C34.0705 27.176 34.338 25.776 34.3665 24.355C34.448 22.53 34.4727 21.9514 34.4727 17.3168C34.4689 12.684 34.4689 12.0959 34.3627 10.2804ZM17.3779 26.0207C12.5326 26.0207 8.60752 22.0956 8.60752 17.2504C8.60752 12.4051 12.5326 8.48003 17.3779 8.48003C22.2193 8.48003 26.1482 12.4051 26.1482 17.2504C26.1482 22.0956 22.2193 26.0207 17.3779 26.0207ZM26.4973 10.2007C25.3647 10.2007 24.4522 9.2863 24.4522 8.15562C24.4522 7.02495 25.3647 6.11054 26.4973 6.11054C27.626 6.11054 28.5405 7.02495 28.5405 8.15562C28.5405 9.2863 27.626 10.2007 26.4973 10.2007Z" fill="white"/>
<path d="M17.3779 22.9473C20.5243 22.9473 23.0749 20.3966 23.0749 17.2502C23.0749 14.1039 20.5243 11.5532 17.3779 11.5532C14.2316 11.5532 11.6809 14.1039 11.6809 17.2502C11.6809 20.3966 14.2316 22.9473 17.3779 22.9473Z" fill="white"/>
</svg>
