<svg width="31" height="31" viewBox="0 0 31 31" fill="none" xmlns="http://www.w3.org/2000/svg">
<path d="M22.9075 0.668213C22.2281 0.705957 21.5487 0.781446 20.9071 1.00791C19.888 1.38535 18.9066 1.95152 18.0762 2.78189C17.8373 2.93335 17.6355 3.13658 17.4857 3.37655C17.3359 3.61652 17.242 3.88709 17.2109 4.16826C17.1798 4.44943 17.2123 4.73399 17.306 5.0009C17.3997 5.26782 17.5522 5.51025 17.7522 5.71028C17.9522 5.91031 18.1947 6.06281 18.4616 6.15651C18.7285 6.2502 19.0131 6.2827 19.2942 6.25159C19.5754 6.22047 19.846 6.12655 20.0859 5.97677C20.3259 5.82698 20.5291 5.62516 20.6806 5.38624C21.0958 4.97106 21.5865 4.74459 22.1149 4.55587C23.4359 4.10294 25.0589 4.29166 26.1158 5.38624C27.5878 6.85827 27.5878 9.31164 26.1158 10.8214L20.4541 16.483C18.7934 18.1438 17.4346 18.2948 16.4532 18.257C15.4719 18.2193 14.9057 17.7664 14.9057 17.7664C14.6876 17.6424 14.4473 17.5627 14.1984 17.5317C13.9494 17.5006 13.6969 17.5189 13.455 17.5855C13.2132 17.6521 12.9868 17.7657 12.7889 17.9198C12.5909 18.0738 12.4253 18.2654 12.3014 18.4835C12.1775 18.7016 12.0977 18.9419 12.0667 19.1909C12.0357 19.4398 12.054 19.6924 12.1206 19.9342C12.1872 20.176 12.3007 20.4024 12.4548 20.6003C12.6089 20.7983 12.8004 20.9639 13.0185 21.0878C13.0185 21.0878 14.3018 21.9182 16.189 22.0315C18.0762 22.1447 20.7183 21.4275 23.0207 19.0874L28.6824 13.4258C31.6264 10.4817 31.6264 5.72594 28.6824 2.81963C27.6255 1.7628 26.38 1.12114 25.0212 0.81919C24.3418 0.668213 23.5869 0.668213 22.9075 0.705957V0.668213ZM15.3587 9.38713C13.4714 9.31164 10.8671 9.95329 8.64018 12.2179L2.97855 17.8796C0.0344952 20.8236 0.0344952 25.5794 2.97855 28.4857C5.09222 30.5994 8.11176 31.2033 10.7539 30.2597C11.773 29.8822 12.7543 29.3161 13.5847 28.4857C13.8236 28.3343 14.0254 28.131 14.1752 27.8911C14.325 27.6511 14.4189 27.3805 14.45 27.0993C14.4811 26.8182 14.4486 26.5336 14.3549 26.2667C14.2612 25.9998 14.1087 25.7573 13.9087 25.5573C13.7087 25.3573 13.4663 25.2048 13.1993 25.1111C12.9324 25.0174 12.6479 24.9849 12.3667 25.016C12.0855 25.0471 11.815 25.1411 11.575 25.2908C11.335 25.4406 11.1318 25.6424 10.9803 25.8814C10.5651 26.2965 10.0745 26.523 9.54604 26.7117C8.22499 27.1647 6.60199 26.9759 5.54515 25.8814C4.07313 24.4093 4.07313 21.956 5.54515 20.4462L11.2068 14.7846C12.7166 13.2748 14.0376 13.0861 15.0944 13.1238C16.1513 13.1616 16.8684 13.4635 16.8684 13.4635C17.0896 13.6294 17.3444 13.7446 17.615 13.8011C17.8856 13.8576 18.1653 13.854 18.4343 13.7905C18.7034 13.727 18.9552 13.6051 19.1719 13.4336C19.3887 13.262 19.5651 13.045 19.6887 12.7977C19.8123 12.5505 19.8801 12.2791 19.8873 12.0028C19.8945 11.7264 19.8409 11.4519 19.7303 11.1986C19.6197 10.9452 19.4548 10.7193 19.2472 10.5367C19.0397 10.3542 18.7945 10.2194 18.5292 10.142C18.5292 10.142 17.2459 9.38713 15.3587 9.31164V9.38713Z" fill="black"/>
</svg>
