<svg width="53" height="47" viewBox="0 0 53 47" fill="none" xmlns="http://www.w3.org/2000/svg">
<path d="M12.0842 21.2197L3.01023 29.9971C-1.0041 33.8828 -1.00358 40.181 3.0128 44.0677C7.03021 47.9543 13.5379 47.9558 17.5548 44.0692L26.6283 35.2918L12.0842 21.2197Z" fill="#71D7CB"/>
<path d="M48.7388 12.306C46.6773 7.18339 40.7196 4.65 35.4258 6.64493L23.47 11.1492L30.9336 29.6939L42.8909 25.1887C48.1804 23.1958 50.7999 17.4285 48.7388 12.306Z" fill="#71D7CB"/>
<path d="M17.1398 12.1567C18.5597 12.1567 19.7108 11.043 19.7108 9.6691C19.7108 8.29521 18.5597 7.18146 17.1398 7.18146C15.7199 7.18146 14.5688 8.29521 14.5688 9.6691C14.5688 11.043 15.7199 12.1567 17.1398 12.1567Z" fill="#71D7CB"/>
<path d="M1.71406 25.4238C2.66057 25.4238 3.42787 24.6814 3.42787 23.7655C3.42787 22.8497 2.66057 22.1073 1.71406 22.1073C0.767545 22.1073 0.000244141 22.8497 0.000244141 23.7655C0.000244141 24.6814 0.767545 25.4238 1.71406 25.4238Z" fill="#71D7CB"/>
<path d="M40.9773 35.3744C40.5654 33.0181 39.3103 30.9399 37.506 29.4553L31.3901 35.3744H40.9773Z" fill="#71D7CB"/>
<path d="M27.9626 38.6909L23.0217 43.4716C24.9083 45.6175 27.7148 46.9827 30.855 46.9827C35.9435 46.9827 40.1614 43.3955 40.981 38.6909H27.9626Z" fill="#71D7CB"/>
</svg>
