<svg width="19" height="19" viewBox="0 0 19 19" fill="none" xmlns="http://www.w3.org/2000/svg">
<path d="M9.84898 8.70674C10.4466 8.70674 11.0308 8.52953 11.5277 8.19751C12.0246 7.8655 12.4119 7.39359 12.6406 6.84147C12.8693 6.28935 12.9291 5.68181 12.8125 5.09568C12.6959 4.50955 12.4081 3.97115 11.9856 3.54858C11.563 3.126 11.0246 2.83822 10.4385 2.72163C9.85233 2.60505 9.24479 2.66488 8.69267 2.89358C8.14054 3.12228 7.66864 3.50956 7.33662 4.00646C7.00461 4.50335 6.82739 5.08755 6.82739 5.68516C6.82739 6.48653 7.14574 7.25508 7.71239 7.82174C8.27905 8.3884 9.0476 8.70674 9.84898 8.70674Z" fill="#222222"/>
<path d="M14.3812 16.2607C14.5815 16.2607 14.7737 16.1811 14.9153 16.0394C15.057 15.8978 15.1366 15.7056 15.1366 15.5053C15.1366 14.1029 14.5795 12.7579 13.5878 11.7663C12.5962 10.7746 11.2512 10.2175 9.8488 10.2175C8.4464 10.2175 7.10144 10.7746 6.10979 11.7663C5.11814 12.7579 4.56104 14.1029 4.56104 15.5053C4.56104 15.7056 4.64062 15.8978 4.78229 16.0394C4.92395 16.1811 5.11609 16.2607 5.31643 16.2607H14.3812Z" fill="#222222"/>
</svg>
