<svg width="48" height="48" viewBox="0 0 48 48" fill="none" xmlns="http://www.w3.org/2000/svg">
<g clip-path="url(#clip0_183_91)">
<path d="M47.333 39.9137L40.5656 46.6269C39.5666 47.6514 38.2425 47.9984 36.9529 48C31.2501 47.8292 25.8596 45.0278 21.4337 42.1514C14.1688 36.8662 7.50297 30.3128 3.31937 22.3933C1.71481 19.0724 -0.167913 14.8351 0.0119672 11.1284C0.0280072 9.73395 0.403767 8.36543 1.38581 7.46663L8.15325 0.702594C9.55853 -0.492726 10.9175 -0.0794456 11.8168 1.31287L17.2612 11.637C17.8343 12.86 17.5056 14.1705 16.6506 15.0445L14.1573 17.5365C14.0034 17.7473 13.9054 17.9873 13.9029 18.2485C14.859 21.9494 17.7554 25.3605 20.3142 27.708C22.8728 30.0555 25.6232 33.2359 29.1932 33.9888C29.6345 34.1119 30.175 34.1551 30.4908 33.8616L33.3912 30.9119C34.391 30.1541 35.8346 29.7837 36.902 30.4034H36.9529L46.7733 36.2011C48.2149 37.1048 48.3652 38.8512 47.333 39.9137Z" fill="#1E1E1E"/>
</g>
<defs>
<clipPath id="clip0_183_91">
<rect width="48" height="48" fill="white"/>
</clipPath>
</defs>
</svg>
