<svg width="86" height="120" viewBox="0 0 86 120" fill="none" xmlns="http://www.w3.org/2000/svg">
<circle cx="42.8244" cy="42.7972" r="41.2905" stroke="#404040" stroke-opacity="0.5" stroke-width="2.55405"/>
<path d="M28.3318 30.7194C27.1789 29.9878 27.0348 28.8571 27.8995 27.3273C28.8085 25.731 30.5267 24.1791 33.0541 22.6715C35.5816 21.1639 38.7742 20.4101 42.6318 20.4101C47.8863 20.4101 51.7551 21.5962 54.2382 23.9684C56.7434 26.3407 57.9961 29.5887 57.9961 33.7124C57.9961 36.8385 56.1559 40.2195 52.4756 43.8555C48.8174 47.4693 46.9884 50.4512 46.9884 52.8013V53.3334C46.9884 54.7745 46.2678 55.495 44.8267 55.495H39.8384C38.3973 55.495 37.6767 54.7745 37.6767 53.3334V52.3357C37.6767 48.6998 39.3949 45.0859 42.8314 41.4943C46.29 37.9027 48.0193 35.2422 48.0193 33.5129C48.0193 31.7171 47.5981 30.3314 46.7556 29.3559C45.9353 28.3582 44.4498 27.8594 42.2993 27.8594C40.3926 27.8594 38.8518 28.2917 37.6767 29.1564C36.5017 30.021 35.5373 31.0741 34.7835 32.3157C34.0518 33.5351 33.0652 33.7457 31.8237 32.9475L28.3318 30.7194ZM39.8051 69.2297C38.2532 69.2297 37.4772 68.3983 37.4772 66.7355V62.2793C37.4772 60.6165 38.2532 59.7851 39.8051 59.7851H44.86C46.4119 59.7851 47.1879 60.6165 47.1879 62.2793V66.7355C47.1879 68.3983 46.4119 69.2297 44.86 69.2297H39.8051Z" fill="#404040"/>
<path d="M9.53491 105.752C9.53491 103.812 10.0116 102.296 10.9649 101.204C11.9238 100.107 13.3039 99.5581 15.1053 99.5581C16.9066 99.5581 18.284 100.11 19.2373 101.213C20.1962 102.31 20.6756 103.829 20.6756 105.769C20.6756 107.709 20.199 109.23 19.2456 110.333C18.4475 111.248 17.3584 111.78 15.9782 111.929C16.0337 112.467 16.2332 112.896 16.5768 113.218C16.9205 113.539 17.411 113.7 18.0484 113.7C18.3921 113.7 18.672 113.672 18.8881 113.617C19.1043 113.562 19.2262 113.592 19.2539 113.708L19.4202 114.44C19.4479 114.573 19.3787 114.659 19.2124 114.698C18.7191 114.809 18.2424 114.864 17.7824 114.864C16.5907 114.864 15.7371 114.565 15.2217 113.966C14.7117 113.373 14.4318 112.7 14.382 111.946C12.9298 111.813 11.7908 111.27 10.9649 110.316C10.0116 109.213 9.53491 107.692 9.53491 105.752ZM11.2393 105.769C11.2393 107.321 11.558 108.529 12.1954 109.394C12.8328 110.253 13.8027 110.682 15.1053 110.682C16.4078 110.682 17.3778 110.253 18.0152 109.394C18.6526 108.529 18.9713 107.321 18.9713 105.769C18.9713 104.217 18.6526 103.011 18.0152 102.152C17.3778 101.287 16.4078 100.855 15.1053 100.855C13.8027 100.855 12.8328 101.287 12.1954 102.152C11.558 103.011 11.2393 104.217 11.2393 105.769ZM22.6045 108.687V103.374C22.6045 103.125 22.7292 103 22.9786 103H23.6936C23.943 103 24.0677 103.125 24.0677 103.374V108.288C24.0677 109.374 24.2479 110.064 24.6081 110.358C24.9684 110.646 25.4146 110.79 25.9467 110.79C26.6451 110.79 27.1799 110.577 27.5513 110.15C27.9227 109.718 28.1083 108.981 28.1083 107.939V103.374C28.1083 103.125 28.233 103 28.4825 103H29.1975C29.4469 103 29.5716 103.125 29.5716 103.374V111.356C29.5716 111.605 29.4469 111.73 29.1975 111.73H28.4991C28.2497 111.73 28.125 111.605 28.125 111.356V110.69H28.0917C27.7314 111.09 27.3434 111.386 26.9277 111.58C26.512 111.774 26.0049 111.871 25.4063 111.871C24.4363 111.871 23.7269 111.588 23.2779 111.023C22.829 110.452 22.6045 109.673 22.6045 108.687ZM31.4589 107.365C31.4589 105.99 31.8025 104.896 32.4898 104.081C33.1771 103.266 34.1609 102.859 35.4413 102.859C36.5055 102.859 37.3867 103.233 38.0851 103.981C38.789 104.724 39.141 105.913 39.141 107.548C39.141 107.797 39.0274 107.922 38.8001 107.922H33.0053C33.0995 108.992 33.3877 109.737 33.8699 110.158C34.3521 110.574 34.8981 110.782 35.5078 110.782C36.1507 110.782 36.644 110.674 36.9877 110.458C37.3313 110.242 37.5835 110.028 37.7442 109.818C37.9216 109.585 38.0934 109.54 38.2597 109.684L38.7502 110.109C38.8777 110.219 38.8777 110.372 38.7502 110.566C38.6449 110.727 38.3428 110.984 37.844 111.339C37.3507 111.694 36.572 111.871 35.5078 111.871C34.1221 111.871 33.0995 111.464 32.4399 110.649C31.7859 109.834 31.4589 108.739 31.4589 107.365ZM32.972 106.841H37.6694C37.6472 106.065 37.4477 105.386 37.0708 104.804C36.6939 104.217 36.1396 103.923 35.408 103.923C34.7651 103.923 34.2191 104.139 33.7702 104.571C33.3212 104.998 33.0552 105.755 32.972 106.841ZM40.7206 110.915C40.5488 110.754 40.5128 110.605 40.6126 110.466L40.9867 109.942C41.1086 109.776 41.2888 109.784 41.5271 109.967C41.8541 110.217 42.2172 110.416 42.6162 110.566C43.0208 110.715 43.4809 110.79 43.9963 110.79C44.3012 110.79 44.5728 110.754 44.8111 110.682C45.0494 110.605 45.2573 110.463 45.4347 110.258C45.6176 110.053 45.709 109.779 45.709 109.435C45.709 109.236 45.6647 109.047 45.576 108.87C45.4929 108.692 45.3598 108.551 45.1769 108.446C44.9996 108.335 44.825 108.249 44.6531 108.188C44.3705 108.083 44.0878 107.997 43.8051 107.93C43.528 107.858 43.1622 107.75 42.7077 107.606C42.4028 107.512 42.1146 107.379 41.843 107.207C41.5714 107.03 41.3331 106.791 41.128 106.492C40.9285 106.193 40.8287 105.78 40.8287 105.253C40.8287 104.716 40.9922 104.253 41.3192 103.865C41.6463 103.477 42.0564 103.213 42.5497 103.075C43.043 102.931 43.5224 102.859 43.988 102.859C44.6753 102.859 45.2268 102.939 45.6425 103.1C46.0638 103.255 46.4268 103.441 46.7316 103.657C46.909 103.784 46.9339 103.931 46.8065 104.098L46.4323 104.596C46.3159 104.757 46.1358 104.752 45.8919 104.58C45.6869 104.436 45.3959 104.3 45.019 104.172C44.6421 104.045 44.3123 103.981 44.0296 103.981C43.6804 103.981 43.3811 104.02 43.1317 104.098C42.8823 104.175 42.68 104.308 42.5248 104.497C42.3696 104.685 42.292 104.907 42.292 105.162C42.292 105.356 42.3225 105.53 42.3834 105.685C42.4444 105.835 42.558 105.974 42.7243 106.101C42.8906 106.229 43.1234 106.331 43.4227 106.409C43.8883 106.531 44.3123 106.642 44.6947 106.741C45.0827 106.841 45.4319 106.963 45.7423 107.107C46.1469 107.296 46.4573 107.503 46.6734 107.731C46.8952 107.958 47.0476 108.205 47.1307 108.471C47.2139 108.731 47.2554 109.022 47.2554 109.344C47.2554 109.937 47.0781 110.438 46.7233 110.848C46.3741 111.259 45.9834 111.533 45.5511 111.672C45.1187 111.805 44.5977 111.871 43.988 111.871C43.1622 111.871 42.4527 111.755 41.8597 111.522C41.2721 111.284 40.8925 111.081 40.7206 110.915ZM48.4859 104.098C48.2365 104.098 48.1118 104.001 48.1118 103.807V103.291C48.1118 103.097 48.2365 103 48.4859 103H49.4669V102.252C49.4669 102.141 49.4947 102.036 49.5501 101.936L50.1321 100.88C50.2374 100.686 50.3233 100.589 50.3898 100.589H50.6808C50.8471 100.589 50.9302 100.686 50.9302 100.88V103H52.7011C52.9505 103 53.0752 103.097 53.0752 103.291V103.807C53.0752 104.001 52.9505 104.098 52.7011 104.098H50.9302V109.394C50.9302 109.975 51.0161 110.355 51.1879 110.533C51.3653 110.704 51.5759 110.79 51.8198 110.79C52.0082 110.79 52.2327 110.735 52.4932 110.624C52.7593 110.513 52.9422 110.419 53.042 110.341C53.1417 110.264 53.2193 110.289 53.2747 110.416L53.5491 111.056C53.5934 111.167 53.5602 111.256 53.4493 111.322C53.2332 111.45 52.9172 111.575 52.5015 111.696C52.0858 111.813 51.6701 111.871 51.2544 111.871C50.678 111.871 50.2346 111.663 49.9242 111.248C49.6194 110.832 49.4669 110.244 49.4669 109.485V104.098H48.4859ZM55.586 111.73C55.3366 111.73 55.2119 111.605 55.2119 111.356V103.374C55.2119 103.125 55.3366 103 55.586 103H56.301C56.5505 103 56.6752 103.125 56.6752 103.374V111.356C56.6752 111.605 56.5505 111.73 56.301 111.73H55.586ZM55.586 101.42C55.3366 101.42 55.2119 101.296 55.2119 101.046V100.331C55.2119 100.082 55.3366 99.9571 55.586 99.9571H56.301C56.5505 99.9571 56.6752 100.082 56.6752 100.331V101.046C56.6752 101.296 56.5505 101.42 56.301 101.42H55.586ZM58.5624 107.365C58.5624 106.062 58.9061 104.987 59.5934 104.139C60.2862 103.286 61.2977 102.859 62.628 102.859C63.9582 102.859 64.967 103.286 65.6543 104.139C66.3471 104.987 66.6935 106.062 66.6935 107.365C66.6935 108.667 66.3471 109.745 65.6543 110.599C64.967 111.447 63.9582 111.871 62.628 111.871C61.2977 111.871 60.2862 111.447 59.5934 110.599C58.9061 109.745 58.5624 108.667 58.5624 107.365ZM60.1088 107.365C60.1088 108.529 60.3389 109.391 60.7989 109.951C61.2589 110.51 61.8686 110.79 62.628 110.79C63.3873 110.79 63.997 110.51 64.457 109.951C64.9171 109.391 65.1471 108.529 65.1471 107.365C65.1471 106.201 64.9171 105.339 64.457 104.779C63.997 104.219 63.3873 103.94 62.628 103.94C61.8686 103.94 61.2589 104.219 60.7989 104.779C60.3389 105.339 60.1088 106.201 60.1088 107.365ZM68.9549 111.73C68.7055 111.73 68.5808 111.605 68.5808 111.356V103.374C68.5808 103.125 68.7055 103 68.9549 103H69.6533C69.9027 103 70.0274 103.125 70.0274 103.374V104.039H70.0607C70.4209 103.64 70.8089 103.344 71.2246 103.15C71.6403 102.956 72.1586 102.859 72.7793 102.859C73.7881 102.859 74.5114 103.144 74.9493 103.715C75.3927 104.28 75.6144 105.056 75.6144 106.043V111.356C75.6144 111.605 75.4897 111.73 75.2403 111.73H74.5253C74.2759 111.73 74.1511 111.605 74.1511 111.356V106.442C74.1511 105.356 73.971 104.668 73.6107 104.38C73.2505 104.086 72.7932 103.94 72.2389 103.94C71.5184 103.94 70.9724 104.156 70.6011 104.588C70.2297 105.015 70.044 105.749 70.044 106.791V111.356C70.044 111.605 69.9193 111.73 69.6699 111.73H68.9549Z" fill="#404040"/>
</svg>
