<svg width="217" height="216" viewBox="0 0 217 216" fill="none" xmlns="http://www.w3.org/2000/svg">
<path d="M208.918 172.919L172.378 136.379L144.273 124.767C153.631 111.459 158.645 95.5825 158.627 79.3133C158.627 35.5797 123.047 0 79.3133 0C35.5797 0 0 35.5797 0 79.3133C0 123.047 35.5797 158.627 79.3133 158.627C95.724 158.645 111.732 153.545 125.107 144.036L136.689 172.066L173.227 208.608C175.571 210.951 178.353 212.81 181.415 214.079C184.476 215.347 187.758 216 191.072 216C194.386 216 197.668 215.347 200.73 214.079C203.792 212.811 206.574 210.952 208.917 208.609C211.261 206.266 213.12 203.484 214.388 200.422C215.656 197.36 216.309 194.078 216.309 190.764C216.309 187.45 215.657 184.168 214.389 181.107C213.12 178.045 211.262 175.263 208.918 172.919ZM14.4206 79.3133C14.4206 43.5322 43.5322 14.4206 79.3133 14.4206C115.094 14.4206 144.206 43.5322 144.206 79.3133C144.206 115.094 115.094 144.206 79.3133 144.206C43.5322 144.206 14.4206 115.094 14.4206 79.3133ZM198.721 198.411C196.691 200.436 193.94 201.574 191.073 201.574C188.205 201.574 185.455 200.436 183.425 198.411L148.918 163.904L138.151 137.841L164.214 148.609L198.722 183.116C200.747 185.146 201.884 187.896 201.884 190.764C201.884 193.631 200.746 196.381 198.721 198.411Z" fill="#71D7CB"/>
</svg>
