<svg width="19" height="19" viewBox="0 0 19 19" fill="none" xmlns="http://www.w3.org/2000/svg">
<path d="M17.2208 16.1557L12.9423 11.8772C13.9704 10.6428 14.4831 9.05964 14.3737 7.45691C14.2643 5.85419 13.5413 4.35534 12.3549 3.27218C11.1685 2.18901 9.61026 1.60492 8.00422 1.64141C6.39819 1.67791 4.86805 2.33217 3.73211 3.4681C2.59618 4.60404 1.94191 6.13418 1.90542 7.74022C1.86893 9.34625 2.45302 10.9045 3.53619 12.0909C4.61935 13.2772 6.1182 14.0003 7.72092 14.1097C9.32364 14.2191 10.9068 13.7064 12.1412 12.6783L16.4197 16.9568L17.2208 16.1557ZM3.05716 7.89207C3.05716 6.8836 3.35621 5.89778 3.91649 5.05927C4.47676 4.22075 5.2731 3.56721 6.20481 3.18129C7.13652 2.79536 8.16174 2.69439 9.15083 2.89113C10.1399 3.08787 11.0485 3.5735 11.7616 4.28659C12.4747 4.99969 12.9603 5.90823 13.157 6.89733C13.3538 7.88642 13.2528 8.91164 12.8669 9.84335C12.4809 10.7751 11.8274 11.5714 10.9889 12.1317C10.1504 12.6919 9.16455 12.991 8.15608 12.991C6.80422 12.9895 5.50817 12.4518 4.55226 11.4959C3.59635 10.54 3.05866 9.24393 3.05716 7.89207Z" fill="#4E4E4E" fill-opacity="0.7"/>
</svg>
