<svg width="57" height="52" viewBox="0 0 57 52" fill="none" xmlns="http://www.w3.org/2000/svg">
<path d="M54.625 26.1633L48.83 20.2982L49.6375 12.5412L41.0638 10.8174L36.575 4.09045L28.5 7.15963L20.425 4.09045L15.9362 10.7964L7.3625 12.4991L8.17 20.2772L2.375 26.1633L8.17 32.0283L7.3625 39.8064L15.9362 41.5301L20.425 48.2361L28.5 45.1459L36.575 48.2151L41.0638 41.5091L49.6375 39.7853L48.83 32.0283L54.625 26.1633ZM22.2775 34.593L16.625 29.5478C15.6988 28.7279 15.6988 27.4035 16.625 26.5837L16.7913 26.4366C17.7175 25.6167 19.2375 25.6167 20.1637 26.4366L23.9875 29.8421L36.2188 18.9949C37.145 18.175 38.665 18.175 39.5913 18.9949L39.7575 19.142C40.6838 19.9619 40.6838 21.2862 39.7575 22.1061L25.6975 34.593C24.7237 35.4128 23.2275 35.4128 22.2775 34.593Z" fill="white"/>
</svg>
